<mxfile host="app.diagrams.net" agent="Mozilla/5.0 (Windows NT 10.0; Win64; x64) AppleWebKit/537.36 (KHTML, like Gecko) Chrome/131.0.0.0 Safari/537.36" version="25.0.3">
  <diagram name="Page-1" id="Wv0qmRs0C8YBN1ncjyyb">
    <mxGraphModel dx="1434" dy="746" grid="1" gridSize="10" guides="1" tooltips="1" connect="1" arrows="1" fold="1" page="1" pageScale="1" pageWidth="850" pageHeight="1100" math="0" shadow="0">
      <root>
        <mxCell id="0" />
        <mxCell id="1" parent="0" />
        <mxCell id="S7X30ELGA687fzaQQ1ZM-6" style="edgeStyle=orthogonalEdgeStyle;rounded=0;orthogonalLoop=1;jettySize=auto;html=1;entryX=0.5;entryY=0;entryDx=0;entryDy=0;" edge="1" parent="1" source="S7X30ELGA687fzaQQ1ZM-1" target="S7X30ELGA687fzaQQ1ZM-3">
          <mxGeometry relative="1" as="geometry" />
        </mxCell>
        <mxCell id="S7X30ELGA687fzaQQ1ZM-1" value="&lt;font style=&quot;font-size: 24px;&quot;&gt;start&lt;/font&gt;" style="strokeWidth=2;html=1;shape=mxgraph.flowchart.start_1;whiteSpace=wrap;" vertex="1" parent="1">
          <mxGeometry x="375" y="40" width="100" height="60" as="geometry" />
        </mxCell>
        <mxCell id="S7X30ELGA687fzaQQ1ZM-2" value="&lt;font style=&quot;font-size: 24px;&quot;&gt;end&lt;/font&gt;" style="strokeWidth=2;html=1;shape=mxgraph.flowchart.start_1;whiteSpace=wrap;" vertex="1" parent="1">
          <mxGeometry x="375" y="600" width="100" height="60" as="geometry" />
        </mxCell>
        <mxCell id="S7X30ELGA687fzaQQ1ZM-7" style="edgeStyle=orthogonalEdgeStyle;rounded=0;orthogonalLoop=1;jettySize=auto;html=1;entryX=0.5;entryY=0;entryDx=0;entryDy=0;" edge="1" parent="1" source="S7X30ELGA687fzaQQ1ZM-3" target="S7X30ELGA687fzaQQ1ZM-4">
          <mxGeometry relative="1" as="geometry" />
        </mxCell>
        <mxCell id="S7X30ELGA687fzaQQ1ZM-3" value="file = fopen(a.txt)" style="rounded=1;whiteSpace=wrap;html=1;absoluteArcSize=1;arcSize=14;strokeWidth=2;" vertex="1" parent="1">
          <mxGeometry x="363" y="160" width="125" height="70" as="geometry" />
        </mxCell>
        <mxCell id="S7X30ELGA687fzaQQ1ZM-8" style="edgeStyle=orthogonalEdgeStyle;rounded=0;orthogonalLoop=1;jettySize=auto;html=1;entryX=0.5;entryY=0;entryDx=0;entryDy=0;" edge="1" parent="1" source="S7X30ELGA687fzaQQ1ZM-4" target="S7X30ELGA687fzaQQ1ZM-5">
          <mxGeometry relative="1" as="geometry" />
        </mxCell>
        <mxCell id="S7X30ELGA687fzaQQ1ZM-4" value="readfile&lt;br&gt;text = file" style="rounded=1;whiteSpace=wrap;html=1;absoluteArcSize=1;arcSize=14;strokeWidth=2;" vertex="1" parent="1">
          <mxGeometry x="363" y="320" width="125" height="70" as="geometry" />
        </mxCell>
        <mxCell id="S7X30ELGA687fzaQQ1ZM-5" value="output&lt;br&gt;text" style="shape=parallelogram;perimeter=parallelogramPerimeter;whiteSpace=wrap;html=1;fixedSize=1;" vertex="1" parent="1">
          <mxGeometry x="365" y="460" width="120" height="60" as="geometry" />
        </mxCell>
        <mxCell id="S7X30ELGA687fzaQQ1ZM-9" style="edgeStyle=orthogonalEdgeStyle;rounded=0;orthogonalLoop=1;jettySize=auto;html=1;entryX=0.5;entryY=0;entryDx=0;entryDy=0;entryPerimeter=0;" edge="1" parent="1" source="S7X30ELGA687fzaQQ1ZM-5" target="S7X30ELGA687fzaQQ1ZM-2">
          <mxGeometry relative="1" as="geometry" />
        </mxCell>
      </root>
    </mxGraphModel>
  </diagram>
</mxfile>
